<svg width="202" height="113" viewBox="0 0 202 113" fill="none" xmlns="http://www.w3.org/2000/svg">
<g clip-path="url(#clip0_895_421)">
<path d="M139.393 33.1668C139.194 33.2656 138.954 33.3076 138.729 33.3349C137.813 33.4442 136.884 33.4421 135.969 33.3349C135.574 33.2887 135.16 33.2109 134.858 32.9524C134.246 32.4312 134.624 31.7754 134.334 31.1869C134.082 30.6741 133.462 30.7981 133.002 30.8212C132.388 30.8527 131.682 30.7287 131.068 30.6993C130.915 30.6678 130.73 30.6678 130.637 30.7918C130.545 30.8527 130.545 30.9767 130.515 31.0671C130.423 31.498 130.301 31.9583 130.087 32.3261C129.902 32.6329 129.595 32.9398 129.258 33.0638C128.706 33.2782 128.123 33.0638 127.539 33.0323C126.986 33.0007 126.434 33.1247 125.881 33.0932C125.666 33.0932 125.452 33.0617 125.267 32.9398C125.021 32.7864 124.929 32.448 124.899 32.1726C124.838 31.374 125.175 30.5753 125.421 29.8397C126.127 27.6895 126.28 25.4175 126.865 23.2379C127.232 21.7036 127.449 20.1378 127.785 18.6014C128.06 17.2499 128.338 15.93 128.737 14.6395C128.952 13.9943 129.013 13.2881 129.137 12.5819C129.258 11.9366 129.412 11.2914 129.719 10.6777C129.811 10.4633 129.933 10.2489 130.026 10.003C130.179 9.42079 130.547 9.02145 130.978 8.65154C131.285 8.3762 131.652 8.19125 132.052 8.28372C132.697 8.3762 133.311 8.2522 133.956 8.2522C134.601 8.2522 135.276 8.3741 135.89 8.68096C136.289 8.86592 136.564 9.17278 136.688 9.60154C136.81 9.87688 136.873 10.1543 136.903 10.4612C137.056 11.2893 137.178 12.1195 137.302 12.9791C137.823 16.5711 138.408 20.1336 138.99 23.7256C139.143 24.7701 139.328 25.8442 139.482 26.8887C139.622 27.7084 139.925 28.5008 139.961 29.3352C139.999 30.2432 139.915 31.1722 139.891 32.0823C139.885 32.3786 139.87 32.696 139.69 32.9314C139.612 33.0344 139.509 33.11 139.395 33.1668H139.393ZM133.338 22.4077C133.246 21.7625 133.092 21.0878 132.939 20.4426H132.846C132.6 20.4426 131.587 24.9257 131.434 25.386C131.249 26.0922 133.153 25.7853 133.491 25.7244C133.584 25.6928 133.676 25.6634 133.737 25.6319C134.259 25.201 133.431 22.992 133.338 22.4077Z" fill="black"/>
<path d="M146.266 16.1739C146.112 16.4493 146.051 16.7267 146.051 17.0336C146.083 18.1076 146.112 19.1837 146.173 20.2577C146.205 20.9954 146.358 21.7311 146.388 22.4688C146.449 23.4503 146.419 24.4655 146.449 25.447C146.449 25.8758 146.449 26.2751 146.48 26.706C146.541 27.2588 146.88 27.5656 147.432 27.5972H148.477C148.662 27.4437 148.723 27.2293 148.723 26.9834V25.3861C148.691 25.0477 148.815 24.7724 149.122 24.6189C149.797 24.2511 150.503 24.0977 151.272 24.2511C152.1 24.4045 152.653 24.9573 152.807 25.8169C152.928 26.4916 152.96 27.1684 152.928 27.8431C152.897 28.3643 152.928 28.9171 152.928 29.4404C152.96 29.9932 152.989 30.5144 152.714 31.0378C152.5 31.4371 152.193 31.744 151.762 31.9289C149.95 32.7276 147.832 32.4502 145.927 32.4208C145.406 32.4208 144.853 32.4208 144.362 32.2673C143.409 31.9605 142.703 31.1618 142.304 30.2727C141.905 29.4131 141.783 28.4295 141.69 27.4479C141.383 24.8081 141.291 22.1661 141.383 19.5263C141.444 18.1748 141.537 16.8234 141.659 15.474C141.781 14.3685 141.72 13.0801 142.087 12.0649C142.209 11.7581 142.394 11.5437 142.672 11.3903C144.206 10.5306 146.142 10.869 147.83 10.8985C148.782 10.93 149.734 10.9594 150.623 11.2978C153.109 12.2499 152.496 15.0138 152.527 17.1324C152.559 17.8995 152.22 18.4523 151.575 18.7907C150.993 19.0975 150.377 19.3119 149.734 19.3434C149.273 19.3434 148.874 19.1585 148.536 18.8831C148.229 18.6078 148.197 18.2085 148.26 17.8091C148.382 17.1954 148.292 16.5502 148.229 15.9049C147.523 15.8734 146.877 15.8734 146.264 16.1802L146.266 16.1739Z" fill="black"/>
<path d="M155.322 15.8061C154.402 15.8376 154.124 15.5917 154.095 14.6691C154.063 13.9313 154.063 13.2251 154.063 12.4895C154.063 12.3045 154.063 12.1217 154.124 11.9367C154.156 11.8148 154.217 11.6299 154.339 11.5374C154.614 11.2915 154.923 11.0456 155.32 10.9846C156.148 10.9237 156.947 10.7997 157.777 10.7093C158.269 10.6483 158.759 10.6483 159.251 10.6168C159.465 10.5853 159.679 10.6168 159.896 10.6168C161.34 10.6168 162.782 10.6168 164.226 10.4949C164.501 10.4634 164.808 10.4634 165.117 10.4634C165.67 10.4949 165.976 10.7702 166.037 11.323C166.098 11.6614 166.069 12.0292 166.069 12.3676C166.037 12.9813 166.008 13.595 165.947 14.2088C165.915 15.2534 165.455 15.4993 164.596 15.4677C163.982 15.4677 163.337 15.4677 162.723 15.4362H162.294V15.8965C162.263 18.322 162.263 20.718 162.233 23.1435C162.202 23.5428 162.141 23.9421 162.111 24.3415C162.08 24.5874 162.08 24.8018 162.05 25.0477C161.989 25.9388 162.082 26.8594 161.928 27.7506C161.806 28.2424 161.867 28.7636 161.836 29.2555V30.6994C161.836 31.2816 161.59 31.744 161.13 32.0803C161.069 32.1412 160.976 32.2022 160.884 32.2337C159.871 32.6015 158.887 32.6015 157.937 32.1412C157.292 31.8344 156.956 31.3131 156.924 30.5754C156.771 27.7506 156.832 24.9258 156.863 22.1325C156.895 20.9051 157.048 19.6755 157.138 18.4796C157.199 17.7734 157.26 17.0672 157.323 16.3925V15.7473C156.617 15.7788 155.972 15.8082 155.327 15.8082L155.322 15.8061Z" fill="black"/>
<path d="M167.238 19.3371C167.299 18.509 167.423 17.7103 167.484 16.8801C167.545 15.928 167.545 14.9759 167.637 14.0238C167.698 13.2566 167.759 12.4894 168.068 11.7517C168.253 11.2914 168.56 11.077 169.049 11.0455C169.541 11.0455 170.031 10.953 170.523 10.9236C170.952 10.8921 171.351 10.8921 171.782 10.8921C172.213 10.9236 172.488 11.2305 172.519 11.6592C172.551 12.1511 172.551 12.6723 172.551 13.1935C172.551 14.3306 172.519 15.4656 172.519 16.6026C172.488 18.015 172.488 19.4274 172.458 20.8714C172.427 21.792 172.427 22.7125 172.398 23.6352C172.398 23.7887 172.398 23.9421 172.337 24.0955C172.183 24.6483 172.244 25.2305 172.215 25.8148C172.215 26.4285 172.215 27.0737 172.093 27.719C172.032 28.1793 172.061 28.6711 172.032 29.1629V30.6069C172.032 31.1596 171.786 31.5884 171.357 31.9268C171.265 31.9877 171.204 32.0487 171.111 32.0802C170.437 32.2652 169.73 32.5111 168.993 32.2652C168.778 32.1727 168.501 32.1727 168.286 32.0802C167.549 31.7733 167.181 31.2521 167.12 30.4219C166.967 28.4567 167.059 26.46 166.998 23.8202C167.059 22.7462 167.12 21.0269 167.244 19.3371H167.238Z" fill="black"/>
<path d="M182.774 31.7419C182.068 31.8638 181.361 31.8638 180.655 31.8953C179.827 31.9562 178.997 32.1412 178.169 32.1706C177.341 32.2316 176.45 32.1097 175.773 31.6494C175.006 31.1576 174.575 30.3295 174.36 29.4698C174.146 28.6102 174.146 27.719 174.146 26.83C174.146 25.2957 174.178 23.7593 174.238 22.225C174.27 21.0269 174.392 19.8605 174.484 18.694C174.545 17.7734 174.638 16.8822 174.699 15.9616C174.73 15.3164 174.76 14.6417 174.791 13.9965C174.823 13.7821 174.852 13.5677 174.945 13.3827C175.13 12.9225 175.312 12.4622 175.558 12.0628C175.897 11.4491 176.511 11.1717 177.156 11.1107C178.23 11.0182 179.306 10.9573 180.38 11.0792C181.025 11.1401 181.668 11.1717 182.314 11.2641C182.835 11.3251 183.358 11.4491 183.879 11.571C184.247 11.6929 184.525 11.9388 184.678 12.2772C184.8 12.645 184.953 12.9834 185.046 13.3512C185.199 13.9965 185.321 14.6711 185.414 15.3458C185.445 15.7136 185.382 16.1445 185.353 16.5438V19.5221C185.321 20.0139 185.292 20.5036 185.26 20.966C185.229 21.7647 185.168 22.5633 185.168 23.3305C185.075 25.3882 185.136 27.4143 184.768 29.4719C184.737 29.6254 184.707 29.8103 184.676 29.9932C184.43 31.0378 183.848 31.5275 182.772 31.744L182.774 31.7419ZM179.947 16.3589C179.302 16.3273 178.873 16.7582 178.873 17.4035C178.841 18.0172 178.812 18.6309 178.812 19.2762C178.812 19.8605 178.843 20.4742 178.904 21.0564C178.997 22.4688 178.812 23.8812 178.783 25.2936C178.751 25.7854 178.751 26.3066 178.814 26.7985C178.846 27.1978 179.335 27.5362 179.705 27.4731C179.951 27.4122 180.197 27.3512 180.443 27.2587C180.718 27.1368 180.935 26.9834 180.964 26.645C181.025 26.1847 181.025 25.7244 181.025 25.2641C181.057 24.8039 181.025 24.373 181.025 23.9442C181.057 23.3305 181.118 22.7168 181.086 22.1031C181.055 20.9366 180.994 19.7701 180.933 18.6036C180.901 17.9583 180.872 17.2837 180.626 16.6699C180.441 16.424 180.226 16.3631 179.951 16.3631L179.947 16.3589Z" fill="black"/>
<path d="M192.108 18.9671C192.108 20.6864 192.14 22.3762 192.077 24.064C192.077 25.077 191.984 26.0901 191.923 27.1031C191.862 28.4231 191.77 29.743 191.709 31.0629C191.709 31.1554 191.677 31.2163 191.677 31.3088C191.646 31.8301 191.402 32.1369 190.879 32.2609C190.45 32.3534 189.987 32.5678 189.559 32.4753C189.067 32.3828 188.607 32.2904 188.178 32.076C187.564 31.8301 187.226 31.3088 187.165 30.632C187.011 27.8072 187.072 25.014 187.104 22.2186C187.135 20.7747 187.289 19.3623 187.411 17.9204C187.533 16.7539 187.564 15.5559 187.657 14.3579C187.718 13.6202 187.81 12.853 187.903 12.1174C187.963 11.8421 188.087 11.5646 188.178 11.3187C188.331 10.9803 188.577 10.7975 188.945 10.766C189.744 10.705 190.542 10.705 191.339 10.8879C191.492 10.9194 191.614 10.9803 191.738 11.0098C192.32 11.9913 192.812 12.9749 193.426 13.8955C194.04 14.8161 194.746 15.6463 195.484 16.5669C195.484 16.3819 195.515 16.26 195.515 16.1381C195.576 15.186 195.608 14.2045 195.669 13.2524C195.73 12.6386 195.791 12.0249 196.068 11.4406C196.253 11.0119 196.56 10.7659 197.049 10.7344C197.787 10.7029 198.523 10.7344 199.261 10.8879C199.414 10.9194 199.567 10.9803 199.66 11.0098C200.305 11.6844 200.12 12.4537 200.089 13.2208C200.057 13.4058 200.028 13.6202 200.028 13.8346C200.028 15.3689 200.059 16.9053 200.059 18.4711C200.059 20.1904 200.091 21.9412 200.059 23.6898C199.998 25.1338 199.906 26.5756 199.752 27.988C199.66 28.9086 199.752 29.7997 199.66 30.7203C199.628 30.9956 199.599 31.3025 199.567 31.6115C199.536 31.8574 199.382 32.0402 199.168 32.1327C198.647 32.3177 198.094 32.5321 197.541 32.4711C197.049 32.3786 196.56 32.2861 196.129 32.0718C195.484 31.7964 195.147 31.2731 195.116 30.5375C194.962 28.0195 195.055 25.4722 195.023 22.9227C195.023 22.8008 194.992 22.6474 194.931 22.5549C194.439 21.7562 194.01 20.8966 193.426 20.1609C192.997 19.6082 192.688 18.9629 192.32 18.3492C192.289 18.2882 192.228 18.2273 192.167 18.1642H192.106V18.9629L192.108 18.9671Z" fill="black"/>
<path d="M130.944 53.3376C131.005 52.7533 131.036 52.1395 131.129 51.5258C131.343 50.2984 131.404 49.1004 131.375 47.8729C131.375 47.2907 131.253 46.7064 131.253 46.1221C131.221 45.17 131.192 44.2179 131.221 43.2973C131.253 42.4987 131.007 41.824 130.7 41.1472C130.362 40.9013 129.962 40.9622 129.595 40.8719C128.857 40.6575 128.09 40.7184 127.323 40.7184C127.016 40.7184 126.709 40.7184 126.431 40.7794C125.694 40.9328 125.233 40.3506 125.204 39.7979C125.143 39.1526 125.235 38.5389 125.326 37.9252C125.357 37.8033 125.387 37.6793 125.387 37.5574C125.479 37.0971 125.755 36.8511 126.246 36.8196C126.614 36.7881 127.014 36.7587 127.413 36.7587C128.947 36.7271 130.484 36.7587 131.989 36.6977C132.726 36.6662 133.462 36.7902 134.168 36.8196C134.414 36.8196 134.689 36.9121 134.935 37.0046C135.181 37.0971 135.364 37.2799 135.427 37.5574C135.488 37.8642 135.52 38.1711 135.52 38.5095C135.52 39.2157 135.58 39.9534 135.704 40.6596C135.826 41.3048 135.858 42.011 135.826 42.6857C135.765 44.2515 135.826 45.8174 135.826 47.4147C135.826 48.06 135.734 48.7347 135.673 49.3799C135.641 49.9327 135.58 50.5149 135.58 51.0676C135.58 52.0807 135.459 53.0938 135.242 54.0774C135.057 54.8761 134.782 55.6748 134.322 56.3494C133.922 56.9947 133.369 57.4844 132.541 57.5474C131.375 57.6084 130.238 57.6694 129.103 57.7324C128.672 57.7639 128.212 57.7639 127.783 57.7639C127.016 57.7639 126.339 57.4886 125.757 56.9968C125.45 56.7214 125.296 56.3515 125.235 55.9522C125.114 55.3069 125.051 54.6638 124.99 54.0185C124.929 53.6192 124.897 53.2199 124.868 52.8205C124.868 52.6986 124.868 52.5746 124.899 52.4527C124.931 52.1143 125.021 51.778 125.084 51.4397C125.116 51.1328 125.33 50.9184 125.605 50.8259C125.881 50.704 126.158 50.6116 126.465 50.6116C127.018 50.58 127.571 50.6116 128.123 50.6431C128.584 50.6746 129.168 51.0109 129.229 51.6877C129.229 51.902 129.26 52.148 129.26 52.3623C129.26 52.7617 129.353 53.1001 129.536 53.4069C130.334 53.8987 130.549 53.7453 130.948 53.346L130.944 53.3376Z" fill="black"/>
<path d="M141.407 37.3094C141.377 38.2909 141.318 39.2746 141.289 40.2561C141.289 41.0548 141.318 41.8219 141.318 42.6206C141.318 42.959 141.348 43.2658 141.318 43.6021C141.23 44.4933 141.259 45.3823 141.348 46.2735C141.436 47.255 141.377 48.2072 141.318 49.1908C141.259 50.0189 141.259 50.8176 141.23 51.6478C141.201 52.2005 141.348 52.5389 142.05 52.6924C142.283 52.6314 142.548 52.5705 142.781 52.478C143.103 52.3561 143.338 52.1396 143.338 51.7108C143.338 51.0971 143.368 50.4834 143.368 49.8381C143.397 49.3169 143.426 48.8251 143.456 48.3038C143.456 47.9045 143.426 47.5367 143.426 47.1689C143.426 46.1243 143.426 45.0818 143.397 44.0057C143.368 41.948 143.22 39.8904 143.544 37.8643C143.603 37.4355 143.691 37.0046 143.983 36.7272C144.275 36.4203 144.774 36.3594 145.213 36.3594C145.885 36.3594 146.648 36.4813 147.117 37.0341C147.586 37.5868 147.615 38.4149 147.615 39.1527C147.586 41.2397 147.439 43.2974 147.439 45.355C147.409 46.1222 147.38 46.8599 147.35 47.6271C147.35 47.9024 147.321 48.1483 147.321 48.4257C147.321 48.7326 147.35 49.0079 147.38 49.2854C147.409 49.5313 147.439 49.8066 147.439 50.0525C147.38 51.9252 147.262 53.9829 146.707 55.7631C146.619 56.0699 146.501 56.3768 146.327 56.6227C145.77 57.4214 144.774 57.6673 143.868 57.7577C142.989 57.8796 142.111 57.9111 141.203 57.8796C140.557 57.8796 139.885 57.8186 139.269 57.5412C138.273 57.0809 137.6 56.0363 137.249 54.9308C136.928 53.8568 136.928 52.6903 136.898 51.5217C136.869 50.0483 136.839 48.575 136.898 47.131C136.957 45.6262 137.104 44.1843 137.279 42.7089C137.308 42.3411 137.308 41.9417 137.338 41.5739C137.367 40.8068 137.396 40.0396 137.455 39.2704C137.455 39.0244 137.514 38.7491 137.602 38.5032C137.779 38.0429 137.983 37.612 138.218 37.2127C138.51 36.6915 138.95 36.4455 139.565 36.4455C140.122 36.4455 140.679 36.4771 141.175 36.6915C141.352 36.8449 141.409 37.0593 141.409 37.3052L141.407 37.3094Z" fill="black"/>
<path d="M154.887 41.6075C154.23 41.5466 153.603 41.4856 152.975 41.761C152.706 42.1603 152.706 42.5891 152.676 43.0515C153.095 43.5117 153.513 43.972 153.99 44.4029C154.917 45.231 155.871 46.0297 156.918 46.7359C157.546 47.1352 157.962 47.7489 158.442 48.3332C158.5 48.4551 158.561 48.5792 158.591 48.7011C158.83 49.7141 158.919 50.7272 158.919 51.7402C158.948 52.9383 158.919 54.1048 158.889 55.2712C158.86 55.7925 158.769 56.3158 158.711 56.8371C158.681 57.083 158.532 57.2658 158.351 57.4508C157.904 57.7892 157.365 57.9426 156.827 57.972C156.111 58.0036 155.394 58.0036 154.677 58.033C154.2 58.0645 153.721 58.1255 153.273 58.0939C152.676 58.0939 152.079 58.0015 151.512 57.972C151.184 57.9405 150.854 57.9111 150.556 57.8796C150.167 57.8186 149.749 57.7871 149.362 57.6946C149.242 57.6631 149.122 57.6021 149.034 57.5097C148.765 57.2028 148.525 56.8644 148.496 56.4041C148.376 55.1157 148.406 53.8567 148.406 52.5662C148.406 52.2594 148.435 51.921 148.464 51.6141C148.584 50.723 149.33 50.0798 150.226 50.0168C150.764 49.9853 151.27 50.0483 151.749 50.2627C152.197 50.4161 152.376 50.662 152.376 51.1538C152.405 51.6751 152.435 52.2279 152.496 52.7512C152.496 52.9362 152.586 53.0896 152.674 53.2724C153.063 53.2409 153.452 53.2409 153.809 53.2115C154.286 53.119 154.587 52.8122 154.616 52.2909V51.2779C154.616 51.1854 154.587 51.0635 154.587 50.91C154.259 50.6032 153.929 50.2648 153.572 49.897C153.332 49.6511 153.095 49.3757 152.855 49.1298C152.586 48.8545 152.317 48.6086 152.019 48.3627C151.451 47.9339 150.854 47.5346 150.287 47.0722C149.927 46.7968 149.599 46.4585 149.271 46.1516C149.002 45.8763 148.824 45.5379 148.883 45.1385C148.883 44.9536 148.853 44.8001 148.824 44.6173C148.616 43.5117 148.616 42.4062 148.733 41.3007V40.9938C148.614 39.9807 148.792 38.9677 148.973 37.984C149.002 37.7087 149.122 37.4922 149.242 37.2463C149.332 37.0004 149.54 36.8785 149.751 36.7545C150.289 36.5086 150.827 36.4161 151.394 36.3867C153.158 36.2648 154.89 36.4182 156.621 36.3867C157.069 36.3867 157.487 36.4792 157.906 36.5716C158.353 36.6326 158.683 36.91 158.891 37.3703C159.099 37.7991 159.131 38.2615 159.099 38.7218V41.1788C159.07 41.6706 159.041 42.1918 159.009 42.6836C159.009 43.083 158.98 43.4508 158.83 43.8501C158.591 43.972 158.322 44.0645 158.053 44.096C157.336 44.157 156.649 44.281 155.932 44.2179C155.692 44.2179 155.455 44.157 155.215 44.1255C154.858 43.2658 154.976 42.4377 154.887 41.6075Z" fill="black"/>
<path d="M160.855 41.3553C160.443 41.2986 160.108 41.1872 160.026 40.9833C159.987 40.8845 159.982 40.7752 159.98 40.668C159.953 39.7433 159.963 38.8185 160.01 37.8937C160.024 37.591 160.047 37.2779 160.19 37.0109C160.462 36.5086 161.069 36.557 161.561 36.5044C162.143 36.4414 162.725 36.3678 163.305 36.2942C163.797 36.2333 164.287 36.2333 164.779 36.2017C164.993 36.1702 165.207 36.2017 165.424 36.2017C166.979 36.2017 168.616 36.2774 170.155 36.0946C170.376 36.0693 170.626 36.082 170.779 36.2438C170.931 36.4035 170.935 36.6494 170.928 36.8701C170.897 38.0955 170.865 39.3271 170.622 40.5293C170.594 40.6702 170.559 40.8152 170.468 40.9245C170.151 41.3049 168.705 41.0464 168.249 41.0254H167.818V41.4856C167.786 43.9111 167.786 46.3071 167.757 48.7326C167.725 49.1319 167.664 49.5313 167.635 49.9306C167.603 50.1765 167.603 50.3909 167.574 50.6368C167.513 51.528 167.606 52.4486 167.452 53.3397C167.33 53.8315 167.391 54.3528 167.36 54.8446V56.2885C167.36 56.8707 167.114 57.3331 166.653 57.6694C166.592 57.7304 166.5 57.7913 166.407 57.8228C165.394 58.1906 164.411 58.1906 163.461 57.7304C162.816 57.4235 162.479 56.9023 162.448 56.1645C162.294 53.3397 162.355 50.5149 162.387 47.7216C162.418 46.4942 162.572 45.2647 162.662 44.0687C162.723 43.3625 162.784 42.6563 162.847 41.9817V41.3364C162.847 41.3595 161.693 41.4751 160.857 41.3616L160.855 41.3553Z" fill="black"/>
<path d="M171.626 44.9242C171.687 44.0961 171.811 43.2974 171.872 42.4672C171.933 41.5151 171.933 40.563 172.026 39.6109C172.087 38.8438 172.148 38.0766 172.457 37.3389C172.641 36.8786 172.948 36.6642 173.438 36.6327C173.93 36.6327 174.42 36.5402 174.911 36.5108C175.34 36.4792 175.74 36.4792 176.17 36.4792C176.601 36.5108 176.877 36.8176 176.908 37.2464C176.94 37.7382 176.94 38.2595 176.94 38.7807C176.94 39.9178 176.908 41.0527 176.908 42.1898C176.877 43.6022 176.877 45.0146 176.847 46.4585C176.816 47.3791 176.816 48.2997 176.786 49.2224C176.786 49.3758 176.786 49.5292 176.725 49.6827C176.572 50.2354 176.633 50.8176 176.603 51.4019C176.603 52.0157 176.603 52.6609 176.481 53.3062C176.42 53.7664 176.45 54.2583 176.421 54.7501V56.194C176.421 56.7468 176.175 57.1755 175.746 57.5139C175.653 57.5749 175.592 57.6358 175.5 57.6674C174.825 57.8523 174.119 58.0982 173.381 57.8523C173.167 57.7598 172.889 57.7598 172.675 57.6674C171.937 57.3605 171.57 56.8393 171.509 56.0091C171.355 54.0439 171.448 52.0472 171.387 49.4073C171.448 48.3333 171.509 46.6141 171.633 44.9242H171.626Z" fill="black"/>
<path d="M182.854 41.7611C182.7 42.0364 182.639 42.3139 182.639 42.6207C182.671 43.6947 182.7 44.7709 182.761 45.8449C182.793 46.5826 182.946 47.3182 182.976 48.056C183.037 49.0375 183.007 50.0527 183.037 51.0342C183.037 51.4629 183.037 51.8623 183.068 52.2932C183.129 52.8459 183.467 53.1528 184.02 53.1843H185.065C185.25 53.0309 185.311 52.8165 185.311 52.5706V50.9732C185.279 50.6348 185.403 50.3595 185.71 50.2061C186.385 49.8383 187.091 49.6848 187.86 49.8383C188.688 49.9917 189.241 50.5445 189.394 51.4041C189.516 52.0788 189.548 52.7555 189.516 53.4302C189.485 53.9515 189.516 54.5042 189.516 55.0276C189.548 55.5803 189.577 56.1016 189.302 56.6249C189.088 57.0243 188.781 57.3311 188.35 57.5161C186.538 58.3148 184.42 58.0373 182.515 58.0079C181.994 58.0079 181.441 58.0079 180.949 57.8545C179.997 57.5476 179.291 56.7489 178.892 55.8599C178.492 55.0003 178.371 54.0166 178.278 53.0351C177.971 50.3952 177.879 47.7533 177.971 45.1135C178.032 43.762 178.125 42.4106 178.247 41.0612C178.368 39.9557 178.308 38.6673 178.675 37.6521C178.797 37.3452 178.982 37.1309 179.258 36.9774C180.792 36.1178 182.728 36.4562 184.415 36.4856C185.367 36.5171 186.32 36.5466 187.209 36.885C189.695 37.8371 189.081 40.6009 189.113 42.7195C189.144 43.4867 188.806 44.0394 188.161 44.3778C187.579 44.6847 186.963 44.8991 186.32 44.9306C185.859 44.9306 185.46 44.7456 185.122 44.4703C184.815 44.195 184.783 43.7956 184.846 43.3963C184.968 42.7826 184.878 42.1373 184.815 41.4921C184.108 41.4605 183.463 41.4605 182.849 41.7674L182.854 41.7611Z" fill="black"/>
<path d="M200.019 43.7262C199.773 43.7577 199.559 43.8796 199.345 43.9111C198.76 43.9427 198.178 43.9427 197.564 43.9721C197.136 43.7577 196.919 43.4193 196.89 42.9275C196.829 42.4987 196.768 42.0994 196.675 41.637C196.001 41.576 195.355 41.576 194.679 41.8829C194.618 42.0973 194.525 42.2822 194.494 42.4966V44.6468H194.922C195.475 44.6152 196.028 44.6152 196.581 44.5858C197.44 44.5248 197.993 45.1701 197.993 45.8448C198.025 46.4291 198.115 47.0113 198.147 47.5956C198.147 47.9339 198.115 48.2702 198.086 48.6086C198.025 49.008 197.779 49.2833 197.411 49.3758C197.136 49.4683 196.858 49.4977 196.612 49.5292C196.213 49.5607 195.845 49.5607 195.477 49.5607C195.231 49.5923 194.985 49.6217 194.74 49.6826C194.708 49.7436 194.679 49.8045 194.679 49.8676V52.354C194.71 52.9068 195.017 53.2452 195.599 53.3061H195.721C196.028 53.3061 196.335 53.3061 196.673 53.3376C197.012 52.8773 196.827 52.3246 197.012 51.7109C197.073 51.589 197.257 51.4965 197.533 51.4355C198.361 51.2211 199.221 51.2211 200.082 51.2211C200.45 51.1896 200.696 51.467 200.881 51.7424C201.003 51.9273 201.066 52.1417 201.066 52.3267C201.127 52.8794 201.188 53.4322 201.188 54.0144C201.188 54.6281 201.188 55.2419 201.127 55.8577C201.066 56.3495 200.852 56.7488 200.452 57.0557C199.532 57.7619 198.088 57.7934 196.982 57.8838C195.692 58.0057 194.433 57.9763 193.174 57.7913C192.468 57.6989 191.761 57.5454 191.24 57.0851C190.626 56.5324 190.412 55.7043 190.259 54.9056C189.952 53.5857 190.074 52.2048 190.044 50.8533C190.013 49.4725 190.013 48.0895 190.044 46.6771C190.076 45.6325 190.166 44.59 190.229 43.5454C190.322 41.5802 189.983 39.3082 191.52 37.7424C192.104 37.1287 192.9 36.7903 193.699 36.6074C195.204 36.269 196.831 36.393 198.367 36.393C198.796 36.393 199.227 36.454 199.626 36.5149C200.118 36.5759 200.486 36.8218 200.671 37.2821C200.793 37.5574 200.917 37.8664 201.039 38.1417C201.161 38.4801 201.1 38.8479 201.039 39.1863C201.007 39.4007 201.007 39.5856 201.007 39.8C200.976 40.8131 200.976 41.8577 200.976 42.8707C200.976 42.9632 200.944 43.0557 200.944 43.1461C200.698 43.4529 200.423 43.6673 200.023 43.7304L200.019 43.7262Z" fill="black"/>
<path d="M129.807 67.3502C129.653 67.6255 129.592 67.903 129.592 68.2098C129.624 69.2839 129.653 70.36 129.714 71.434C129.746 72.1717 129.899 72.9073 129.929 73.6451C129.99 74.6266 129.96 75.6418 129.99 76.6233C129.99 77.0521 129.99 77.4514 130.021 77.8823C130.082 78.435 130.421 78.7419 130.973 78.7734H132.018C132.203 78.62 132.264 78.4056 132.264 78.1597V76.5623C132.232 76.224 132.356 75.9486 132.663 75.7952C133.338 75.4274 134.044 75.274 134.813 75.4274C135.641 75.5808 136.194 76.1336 136.348 76.9932C136.469 77.6679 136.501 78.3447 136.469 79.0193C136.438 79.5406 136.469 80.0933 136.469 80.6167C136.501 81.1695 136.53 81.6907 136.255 82.214C136.041 82.6134 135.734 82.9203 135.303 83.1052C133.491 83.9039 131.373 83.6265 129.468 83.597C128.947 83.597 128.394 83.597 127.903 83.4436C126.95 83.1367 126.244 82.3381 125.845 81.449C125.446 80.5894 125.324 79.6057 125.231 78.6242C124.924 75.9844 124.832 73.3424 124.924 70.7026C124.985 69.3511 125.078 67.9997 125.2 66.6503C125.322 65.5448 125.261 64.2564 125.628 63.2412C125.75 62.9344 125.935 62.72 126.211 62.5665C127.745 61.7069 129.681 62.0453 131.368 62.0747C132.321 62.1062 133.273 62.1357 134.162 62.4741C136.648 63.4262 136.034 66.19 136.066 68.3086C136.097 69.0758 135.759 69.6285 135.114 69.9669C134.532 70.2738 133.916 70.4882 133.273 70.5197C132.812 70.5197 132.413 70.3348 132.075 70.0594C131.768 69.7841 131.736 69.3847 131.799 68.9854C131.921 68.3717 131.831 67.7264 131.768 67.0812C131.062 67.0497 130.416 67.0497 129.803 67.3565L129.807 67.3502Z" fill="black"/>
<path d="M145.528 78.6495C146.113 78.557 146.726 78.5886 147.309 78.681C147.616 78.742 147.861 78.9269 147.954 79.2338C148.015 79.4482 148.076 79.6941 148.076 79.9085V81.7812C148.044 82.0271 148.044 82.273 147.983 82.4874C147.798 83.0086 147.462 83.3155 146.909 83.347C145.465 83.4689 144.024 83.6223 142.58 83.5614C141.628 83.5299 140.583 83.4079 139.969 82.7017C139.601 82.2415 139.448 81.6887 139.324 81.1044C138.525 77.5734 138.679 74.0739 138.832 70.4799C138.864 69.6518 138.986 68.8531 139.017 68.0229C139.049 67.0413 139.049 66.0892 139.078 65.1056C139.11 64.3384 139.171 63.5398 139.446 62.802C139.631 62.3417 139.906 62.0958 140.427 62.0664C141.134 62.0055 141.808 62.0054 142.515 62.1274C142.729 62.1274 142.914 62.2198 143.099 62.2808C143.62 62.802 143.62 63.4788 143.559 64.122C143.498 64.7357 143.498 65.32 143.528 65.9022C143.589 67.2536 143.62 68.5735 143.649 69.925C143.681 71.5518 143.742 73.1786 143.771 74.7759C143.771 75.8205 143.71 76.863 143.649 77.9076V78.8282C144.295 78.7672 144.908 78.7063 145.522 78.6432L145.528 78.6495Z" fill="black"/>
<path d="M150.503 70.5114C150.564 69.6833 150.688 68.8846 150.749 68.0544C150.81 67.1023 150.81 66.1502 150.903 65.1981C150.964 64.4309 151.025 63.6638 151.333 62.926C151.518 62.4657 151.825 62.2514 152.315 62.2198C152.807 62.2198 153.297 62.1274 153.788 62.0979C154.217 62.0664 154.616 62.0664 155.047 62.0664C155.478 62.0979 155.754 62.4048 155.785 62.8336C155.817 63.3254 155.817 63.8466 155.817 64.3679C155.817 65.5049 155.785 66.6399 155.785 67.777C155.754 69.1894 155.754 70.6018 155.724 72.0457C155.693 72.9663 155.693 73.8869 155.663 74.8095C155.663 74.963 155.663 75.1164 155.602 75.2698C155.449 75.8226 155.51 76.4048 155.48 76.9891C155.48 77.6028 155.48 78.2481 155.358 78.8933C155.297 79.3536 155.327 79.8454 155.297 80.3372V81.7812C155.297 82.3339 155.052 82.7627 154.623 83.1011C154.53 83.162 154.469 83.223 154.377 83.2545C153.702 83.4395 152.996 83.6854 152.258 83.4395C152.044 83.347 151.766 83.347 151.552 83.2545C150.814 82.9477 150.447 82.4264 150.386 81.5962C150.232 79.631 150.325 77.6343 150.264 74.9945C150.325 73.9205 150.386 72.2012 150.51 70.5114H150.503Z" fill="black"/>
<path d="M171.628 64.4015C171.628 64.5865 171.567 64.8008 171.567 65.0152C171.567 66.5495 171.599 68.1154 171.599 69.6812C171.599 71.4004 171.63 73.1512 171.599 74.8705C171.538 76.2829 171.384 77.6953 171.323 79.1392C171.262 80.0598 171.231 80.9804 171.201 81.9031C171.17 82.1784 171.141 82.4559 171.109 82.7627C171.077 83.0696 170.863 83.284 170.556 83.3764C170.342 83.4374 170.157 83.4983 169.943 83.5614C169.175 83.8073 168.408 83.6223 167.702 83.2861C167.027 83.0107 166.72 82.4579 166.657 81.6887C166.504 79.5701 166.565 77.42 166.565 75.2719C166.596 73.7061 166.687 72.1087 166.75 70.5429C166.781 70.1142 166.842 69.6833 166.903 69.1915C166.811 69.2839 166.75 69.3134 166.689 69.3764C166.29 69.8682 165.922 70.3285 165.522 70.8204C165.123 71.3122 164.57 71.3122 164.171 70.8204C163.986 70.545 163.803 70.2676 163.65 69.9607C163.465 69.6854 163.311 69.408 163.158 69.1326C163.126 69.1641 163.097 69.1641 163.065 69.1641V70.1457C163.034 71.9259 163.065 73.6767 163.005 75.4275C163.005 76.3796 162.912 77.3611 162.851 78.3447C162.79 79.6647 162.698 80.9846 162.637 82.336C162.605 82.521 162.576 82.7039 162.544 82.8573C162.483 83.0717 162.359 83.2566 162.145 83.3176C161.592 83.532 161.039 83.7463 160.457 83.656C159.997 83.595 159.566 83.471 159.137 83.2882C158.524 83.0128 158.156 82.521 158.124 81.8148C157.939 78.99 158.002 76.1967 158.063 73.3719C158.095 72.0205 158.248 70.669 158.339 69.3197C158.431 68.0922 158.492 66.8627 158.584 65.6352C158.645 64.8975 158.706 64.1619 158.83 63.4242C158.862 63.1173 158.984 62.8399 159.106 62.533C159.259 62.1652 159.566 61.9487 159.965 61.9487C160.611 61.9487 161.256 61.9802 161.87 62.0097H162.115C162.576 61.9781 162.914 62.1631 163.189 62.5015C163.803 63.3002 164.541 64.0064 164.97 64.9269C165.001 64.9585 165.031 64.9585 165.092 65.0194C165.153 64.9269 165.245 64.866 165.337 64.7441C165.951 63.8845 166.718 63.1173 167.488 62.4111C167.826 62.1358 168.162 61.9193 168.625 61.9508C169.27 61.9823 169.945 61.9823 170.59 62.0433C170.836 62.0433 171.05 62.1358 171.172 62.1967C171.847 62.9029 171.664 63.6701 171.632 64.4078L171.628 64.4015Z" fill="black"/>
<path d="M187.44 82.6703C187.226 83.1621 186.673 83.3765 186.149 83.5299C185.504 83.6833 184.829 83.7443 184.184 83.7149C183.909 83.7149 183.663 83.6833 183.417 83.5614C183.11 83.408 182.896 83.1936 182.742 82.9477C182.375 82.334 182.375 81.6888 182.375 81.0141C182.375 80.7387 182.314 80.4319 182.068 80.2763C181.914 80.1839 181.729 80.1839 181.515 80.1839H180.042C179.888 80.1839 179.703 80.1839 179.55 80.2448C179.274 80.3983 179.182 80.7366 179.089 81.0435C178.875 81.8422 178.505 83.0696 177.677 83.408C177.339 83.5614 176.971 83.593 176.633 83.593C176.141 83.593 175.68 83.593 175.189 83.532C174.882 83.5005 174.543 83.4395 174.297 83.2567C173.991 83.0108 173.869 82.582 173.869 82.2121C173.9 81.1066 174.268 80.001 174.543 78.9564C175.004 77.3906 175.464 75.8542 175.863 74.2589C176.231 72.939 176.416 71.5876 176.691 70.2676C177.183 67.9641 177.704 65.6311 178.442 63.3906C178.535 63.1447 178.627 62.8693 178.781 62.6529C179.119 62.2535 179.672 62.1001 180.193 62.0391C180.777 61.9467 181.391 61.9172 181.973 61.9172C182.648 61.9172 183.386 62.0097 183.877 62.47C184.399 62.9618 184.523 63.7605 184.615 64.4667C184.737 65.2654 184.922 66.001 185.046 66.7703C185.168 67.6614 185.199 68.5505 185.445 69.4101C185.63 69.9923 185.721 70.5766 185.845 71.1609C185.937 71.6527 186.059 72.1424 186.183 72.6343C186.521 73.9542 186.521 75.3056 186.797 76.6571C187.135 78.2229 187.381 79.8203 187.564 81.447C187.595 81.8464 187.656 82.3067 187.442 82.6745L187.44 82.6703ZM181.729 76.0391C181.698 75.211 181.607 74.3808 181.483 73.5822C181.391 72.9979 181.238 72.4451 181.116 71.8629H181.055C180.901 71.8629 180.502 73.5822 180.441 73.7356C180.195 74.4733 179.949 75.2089 179.92 75.9761C179.888 76.098 179.888 76.222 179.981 76.3145C180.073 76.407 180.195 76.407 180.348 76.407C180.687 76.407 181.055 76.4385 181.393 76.4385C181.454 76.4385 181.515 76.4385 181.578 76.407C181.7 76.346 181.763 76.1926 181.731 76.0391H181.729Z" fill="black"/>
<path d="M188.546 66.9804C187.625 67.012 187.348 66.7661 187.318 65.8434C187.287 65.1056 187.287 64.3994 187.287 63.6638C187.287 63.4789 187.287 63.296 187.348 63.1111C187.379 62.9891 187.44 62.8042 187.562 62.7117C187.837 62.4658 188.146 62.2199 188.543 62.1589C189.372 62.098 190.17 61.974 191 61.8836C191.492 61.8227 191.982 61.8227 192.474 61.7911C192.688 61.7596 192.903 61.7911 193.119 61.7911C194.563 61.7911 196.005 61.7911 197.449 61.6692C197.724 61.6377 198.031 61.6377 198.34 61.6377C198.893 61.6692 199.2 61.9446 199.26 62.4973C199.321 62.8357 199.292 63.2035 199.292 63.5419C199.261 64.1556 199.231 64.7694 199.17 65.3831C199.139 66.4277 198.678 66.6736 197.819 66.6421C197.205 66.6421 196.56 66.6421 195.946 66.6105H195.517V67.0708C195.486 69.4963 195.486 71.8923 195.456 74.3178C195.425 74.7171 195.364 75.1165 195.334 75.5158C195.303 75.7617 195.303 75.9761 195.273 76.222C195.212 77.1132 195.305 78.0337 195.152 78.9249C195.03 79.4167 195.091 79.938 195.059 80.4298V81.8737C195.059 82.4559 194.813 82.9183 194.353 83.2546C194.292 83.3155 194.199 83.3765 194.107 83.408C193.094 83.7758 192.11 83.7758 191.16 83.3155C190.515 83.0087 190.179 82.4874 190.147 81.7497C189.994 78.9249 190.055 76.1001 190.086 73.3068C190.118 72.0794 190.271 70.8498 190.362 69.6539C190.422 68.9477 190.483 68.2415 190.546 67.5668V66.9216C189.84 66.9531 189.195 66.9825 188.55 66.9825L188.546 66.9804Z" fill="black"/>
<path d="M124.884 101.986C125.029 100.758 128.564 91.0879 129.287 90.4384C129.684 90.0412 130.081 89.934 130.55 90.1127C131.742 90.4384 131.452 91.6281 131.092 92.6747C129.289 97.2209 128.639 98.8456 128.349 99.8208C128.024 100.868 128.278 101.12 129.396 101.048C131.561 100.76 133.402 100.506 133.402 102.131C133.402 102.744 132.969 103.213 132.284 103.358C131.382 103.467 129.108 103.791 126.908 104.079C125.356 104.296 124.669 103.394 124.886 101.986H124.884Z" fill="black"/>
<path d="M136.757 110.864C136.685 110.143 137.299 109.203 138.705 105.523C138.993 104.802 138.993 104.331 138.596 103.863C138.343 103.537 137.116 97.4753 136.286 94.8039C135.601 92.782 135.889 91.7374 137.08 91.7374C138.56 91.6659 138.776 93.8308 139.571 96.7165C140.113 98.7742 140.365 99.783 140.979 99.6401C141.303 99.5308 141.412 99.3879 141.845 98.3412C143.108 95.3819 145.202 91.2687 145.706 90.8C146.139 90.3313 146.681 90.222 147.221 90.4385C147.98 90.8 148.087 91.6659 147.509 92.8555C144.586 98.3769 142.385 104.151 139.859 109.853C139.281 111.152 138.957 111.837 138.343 111.982C137.549 112.163 136.828 111.656 136.757 110.864Z" fill="black"/>
<path d="M149.061 103.394C147.076 100.327 148.88 94.9488 151.658 91.918C152.163 91.3757 152.741 90.9428 153.319 90.6548C154.256 90.2933 154.834 90.4383 155.448 91.1592C155.736 91.5208 155.99 91.7015 156.314 91.8444C157.432 92.4582 157.758 94.478 157.468 96.0669C156.89 99.0977 155.736 102.274 153.642 104.043C152.056 105.414 150.214 105.126 149.058 103.394H149.061ZM154.727 94.0114C154.475 93.3262 153.932 93.4691 153.357 94.0471C151.948 95.7432 150.904 97.7273 150.904 100.111C150.904 101.122 151.12 101.771 151.698 101.843C153.142 102.095 155.271 95.8168 154.729 94.0114H154.727Z" fill="black"/>
<path d="M158.949 102.997C158.949 102.492 159.779 99.6758 160.538 97.7275C161.873 93.9737 162.955 90.1127 164.435 90.1127C164.904 90.077 165.337 90.2935 165.662 90.6907C166.167 91.3044 166.854 93.795 167.178 95.4176L167.503 96.7523C167.684 97.2945 167.791 97.5467 168.189 97.5467C168.657 97.5467 168.838 96.8258 169.38 95.3819C170.101 93.3978 170.896 91.4116 171.581 90.8357C171.833 90.655 172.085 90.5478 172.447 90.5478C172.987 90.5478 173.71 91.0522 173.674 91.8824C173.674 92.1346 173.565 92.4247 173.422 92.7483C172.052 95.4197 171.655 96.6451 170.246 100.651C169.958 101.481 169.633 102.454 169.2 103.575C168.983 104.117 168.55 104.441 168.046 104.441C167.541 104.441 167.035 104.188 166.638 103.646C165.988 102.744 165.917 101.588 164.761 96.8973C164.58 96.4286 164.002 96.3928 163.785 96.8258C162.919 98.5934 162.089 101.265 161.585 103.032C161.297 104.043 160.719 104.548 159.96 104.367C159.382 104.222 158.949 103.682 158.949 102.997Z" fill="black"/>
<path fill-rule="evenodd" clip-rule="evenodd" d="M178.232 98.2025C178.232 97.3899 178.891 96.7312 179.703 96.7312L199.67 96.7312C200.483 96.7312 201.141 97.3899 201.141 98.2025C201.141 99.015 200.483 99.6737 199.67 99.6737L179.703 99.6737C178.891 99.6737 178.232 99.015 178.232 98.2025Z" fill="black"/>
</g>
<path fill-rule="evenodd" clip-rule="evenodd" d="M11.4667 41.7423C-2.92275 95.5002 79.1262 118.087 96.2535 65.9231C107.497 41.1424 88.8032 16.4972 64.3983 10.3073C44.5449 7.45272 18.3545 22.6637 11.4667 41.7423ZM2.47125 38.9764C-17.4476 105.74 89.0296 132.707 107.648 67.8253C123.385 -4.3786 27.6977 -25.4738 2.47125 38.9764Z" fill="black"/>
<path fill-rule="evenodd" clip-rule="evenodd" d="M49.6266 32.3851C37.6063 34.1427 31.3487 46.0697 33.5777 57.5579C34.8661 65.8531 46.9308 73.2357 55.3754 72.5308C65.2251 73.238 75.4646 57.4202 74.7551 48.5041C72.0335 37.9378 60.683 30.5015 49.629 32.3828L49.6266 32.3851ZM50.719 23.8051C10.7973 29.6776 19.3353 85.1487 58.412 81.1668C72.3767 77.9855 85.0599 60.9562 84.7471 46.8819C82.4388 33.0083 64.0161 20.6332 50.719 23.8051Z" fill="black"/>
<path fill-rule="evenodd" clip-rule="evenodd" d="M51.9875 44.4989C43.2442 47.1504 45.9307 62.121 55.7944 60.4755C63.0393 59.3785 65.9662 48.9406 57.5893 47.4422C55.8504 45.9694 54.9098 44.0485 51.9875 44.4966V44.4989Z" fill="black"/>
<defs>
<clipPath id="clip0_895_421">
<rect width="194.88" height="111.55" fill="white" transform="translate(6.30566 0.469238)"/>
</clipPath>
</defs>
</svg>
